<svg xmlns="http://www.w3.org/2000/svg" viewBox="0 0 64 64">
  <defs>
    <linearGradient id="bg" x1="8" y1="6" x2="56" y2="60" gradientUnits="userSpaceOnUse">
      <stop stop-color="#FFF8E7"/>
      <stop offset="1" stop-color="#F2DFC0"/>
    </linearGradient>
    <linearGradient id="cap" x1="14" y1="18" x2="49" y2="46" gradientUnits="userSpaceOnUse">
      <stop stop-color="#8D2942"/>
      <stop offset="1" stop-color="#4A0F1D"/>
    </linearGradient>
  </defs>
  <rect x="2" y="2" width="60" height="60" rx="15" fill="url(#bg)"/>
  <path d="M7 25.5 32 13l25 12.5L32 38 7 25.5Z" fill="url(#cap)"/>
  <path d="M17 31v12.5c7.5 6.1 22.5 6.1 30 0V31l-15 7.5L17 31Z" fill="#65162B"/>
  <path d="M53 27v15" stroke="#D7B44A" stroke-width="4" stroke-linecap="round"/>
  <circle cx="53" cy="46" r="5" fill="#D7B44A"/>
  <path d="m51.3 44.7 1.4-2.7 1.2 2.7 2.8 1.3-2.8 1.1-1.2 2.8-1.4-2.8-2.7-1.1 2.7-1.3Z" fill="#2EC4B6"/>
  <path d="M22 42c5.6 2.8 14.4 2.8 20 0" fill="none" stroke="#E8C963" stroke-width="2.5" stroke-linecap="round"/>
</svg>
